<svg id="Camada_1" data-name="Camada 1" xmlns="http://www.w3.org/2000/svg" viewBox="0 0 91.17 117.64"><defs><style>.cls-1{fill:#722626;}.cls-2{fill:#966845;}.cls-3{fill:#232221;}.cls-4{fill:#2d160d;}.cls-5{fill:#5b5959;}.cls-6{fill:#c9c7c7;}.cls-7{fill:#353535;}.cls-8{fill:#fff;}</style></defs><title>Me</title><rect class="cls-1" x="41.17" y="108.82" width="2.95" height="2.94"/><rect class="cls-1" x="32.35" y="108.82" width="2.94" height="2.94"/><rect class="cls-1" x="61.76" y="108.82" width="2.94" height="2.94"/><rect class="cls-1" x="70.59" y="108.82" width="2.94" height="2.94"/><rect class="cls-1" x="73.53" y="111.76" width="2.94" height="2.94"/><rect class="cls-1" x="70.59" y="111.76" width="2.94" height="2.94"/><rect class="cls-1" x="67.65" y="111.76" width="2.94" height="2.94"/><rect class="cls-1" x="64.7" y="111.76" width="2.95" height="2.94"/><rect class="cls-1" x="61.76" y="111.76" width="2.94" height="2.94"/><rect class="cls-1" x="58.82" y="111.76" width="2.94" height="2.94"/><rect class="cls-2" x="88.23" y="73.53" width="2.94" height="2.94"/><rect class="cls-2" x="88.23" y="70.59" width="2.94" height="2.94"/><rect class="cls-2" x="88.23" y="67.64" width="2.94" height="2.95"/><rect class="cls-2" x="88.23" y="64.7" width="2.94" height="2.94"/><rect class="cls-3" x="88.23" y="61.76" width="2.94" height="2.94"/><rect class="cls-3" x="88.23" y="58.82" width="2.94" height="2.94"/><rect class="cls-2" x="85.29" y="85.29" width="2.94" height="2.94"/><rect class="cls-2" x="85.29" y="82.35" width="2.94" height="2.94"/><rect class="cls-2" x="85.29" y="79.41" width="2.94" height="2.94"/><rect class="cls-2" x="85.29" y="76.47" width="2.94" height="2.94"/><rect class="cls-2" x="85.29" y="73.53" width="2.94" height="2.94"/><rect class="cls-2" x="85.29" y="70.59" width="2.94" height="2.94"/><rect class="cls-2" x="85.29" y="67.64" width="2.94" height="2.95"/><rect class="cls-3" x="85.29" y="64.7" width="2.94" height="2.94"/><rect class="cls-3" x="85.29" y="61.76" width="2.94" height="2.94"/><rect class="cls-3" x="85.29" y="58.82" width="2.94" height="2.94"/><rect class="cls-3" x="85.29" y="55.88" width="2.94" height="2.94"/><rect class="cls-2" x="82.35" y="88.23" width="2.94" height="2.94"/><rect class="cls-2" x="82.35" y="85.29" width="2.94" height="2.94"/><rect class="cls-2" x="82.35" y="82.35" width="2.94" height="2.94"/><rect class="cls-2" x="82.35" y="79.41" width="2.94" height="2.94"/><rect class="cls-2" x="82.35" y="76.47" width="2.94" height="2.94"/><rect class="cls-2" x="82.35" y="73.53" width="2.94" height="2.94"/><rect class="cls-2" x="82.35" y="70.59" width="2.94" height="2.94"/><rect class="cls-3" x="82.35" y="67.64" width="2.94" height="2.95"/><rect class="cls-3" x="82.35" y="64.7" width="2.94" height="2.94"/><rect class="cls-3" x="82.35" y="61.76" width="2.94" height="2.94"/><rect class="cls-3" x="82.35" y="58.82" width="2.94" height="2.94"/><rect class="cls-3" x="82.35" y="55.88" width="2.94" height="2.94"/><rect class="cls-3" x="82.35" y="52.94" width="2.94" height="2.94"/><rect class="cls-2" x="79.41" y="91.17" width="2.94" height="2.94"/><rect class="cls-2" x="79.41" y="88.23" width="2.94" height="2.94"/><rect class="cls-2" x="79.41" y="85.29" width="2.94" height="2.94"/><rect class="cls-2" x="79.41" y="82.35" width="2.94" height="2.94"/><rect class="cls-2" x="79.41" y="79.41" width="2.94" height="2.94"/><rect class="cls-2" x="79.41" y="76.47" width="2.94" height="2.94"/><rect class="cls-2" x="79.41" y="73.53" width="2.94" height="2.94"/><rect class="cls-2" x="79.41" y="70.59" width="2.94" height="2.94"/><rect class="cls-3" x="79.41" y="67.64" width="2.94" height="2.95"/><rect class="cls-3" x="79.41" y="64.7" width="2.94" height="2.94"/><rect class="cls-3" x="79.41" y="61.76" width="2.94" height="2.94"/><rect class="cls-3" x="79.41" y="58.82" width="2.94" height="2.94"/><rect class="cls-3" x="79.41" y="55.88" width="2.94" height="2.94"/><rect class="cls-3" x="79.41" y="52.94" width="2.94" height="2.94"/><rect class="cls-2" x="76.47" y="94.11" width="2.94" height="2.95"/><rect class="cls-2" x="76.47" y="91.17" width="2.94" height="2.94"/><rect class="cls-2" x="76.47" y="88.23" width="2.94" height="2.94"/><rect class="cls-2" x="76.47" y="85.29" width="2.94" height="2.94"/><rect class="cls-2" x="76.47" y="82.35" width="2.94" height="2.94"/><rect class="cls-2" x="76.47" y="79.41" width="2.94" height="2.94"/><rect class="cls-2" x="76.47" y="76.47" width="2.94" height="2.94"/><rect class="cls-2" x="76.47" y="73.53" width="2.94" height="2.94"/><rect class="cls-2" x="76.47" y="70.59" width="2.94" height="2.94"/><rect class="cls-3" x="76.47" y="67.64" width="2.94" height="2.95"/><rect class="cls-3" x="76.47" y="64.7" width="2.94" height="2.94"/><rect class="cls-3" x="76.47" y="61.76" width="2.94" height="2.94"/><rect class="cls-3" x="76.47" y="58.82" width="2.94" height="2.94"/><rect class="cls-3" x="76.47" y="55.88" width="2.94" height="2.94"/><rect class="cls-3" x="76.47" y="52.94" width="2.94" height="2.94"/><rect class="cls-3" x="76.47" y="50" width="2.94" height="2.94"/><rect class="cls-4" x="76.47" y="35.29" width="2.94" height="2.94"/><rect class="cls-4" x="76.47" y="32.35" width="2.94" height="2.94"/><rect class="cls-4" x="76.47" y="29.41" width="2.94" height="2.94"/><rect class="cls-4" x="76.47" y="26.47" width="2.94" height="2.94"/><rect class="cls-4" x="76.47" y="23.53" width="2.94" height="2.94"/><rect class="cls-4" x="76.47" y="20.59" width="2.94" height="2.94"/><rect class="cls-4" x="76.47" y="17.64" width="2.94" height="2.95"/><rect class="cls-4" x="76.47" y="14.7" width="2.94" height="2.94"/><rect class="cls-1" x="73.53" y="114.7" width="2.94" height="2.94"/><rect class="cls-1" x="73.53" y="108.82" width="2.94" height="2.94"/><rect class="cls-5" x="73.53" y="105.88" width="2.94" height="2.94"/><rect class="cls-5" x="73.53" y="102.94" width="2.94" height="2.94"/><rect class="cls-5" x="73.53" y="100" width="2.94" height="2.94"/><rect class="cls-5" x="73.53" y="97.06" width="2.94" height="2.94"/><rect class="cls-2" x="73.53" y="94.11" width="2.94" height="2.95"/><rect class="cls-2" x="73.53" y="91.17" width="2.94" height="2.94"/><rect class="cls-2" x="73.53" y="88.23" width="2.94" height="2.94"/><rect class="cls-2" x="73.53" y="85.29" width="2.94" height="2.94"/><rect class="cls-2" x="73.53" y="82.35" width="2.94" height="2.94"/><rect class="cls-2" x="73.53" y="79.41" width="2.94" height="2.94"/><rect class="cls-3" x="73.53" y="67.64" width="2.94" height="2.95"/><rect class="cls-3" x="73.53" y="64.7" width="2.94" height="2.94"/><rect class="cls-3" x="73.53" y="61.76" width="2.94" height="2.94"/><rect class="cls-3" x="73.53" y="58.82" width="2.94" height="2.94"/><rect class="cls-3" x="73.53" y="55.88" width="2.94" height="2.94"/><rect class="cls-3" x="73.53" y="52.94" width="2.94" height="2.94"/><rect class="cls-4" x="73.53" y="50" width="2.94" height="2.94"/><rect class="cls-4" x="73.53" y="47.06" width="2.94" height="2.94"/><rect class="cls-4" x="73.53" y="44.11" width="2.94" height="2.95"/><rect class="cls-4" x="73.53" y="41.17" width="2.94" height="2.94"/><rect class="cls-4" x="73.53" y="38.23" width="2.94" height="2.94"/><rect class="cls-4" x="73.53" y="35.29" width="2.94" height="2.94"/><rect class="cls-4" x="73.53" y="32.35" width="2.94" height="2.94"/><rect class="cls-4" x="73.53" y="29.41" width="2.94" height="2.94"/><rect class="cls-4" x="73.53" y="26.47" width="2.94" height="2.94"/><rect class="cls-4" x="73.53" y="23.53" width="2.94" height="2.94"/><rect class="cls-4" x="73.53" y="20.59" width="2.94" height="2.94"/><rect class="cls-4" x="73.53" y="17.64" width="2.94" height="2.95"/><rect class="cls-4" x="73.53" y="14.7" width="2.94" height="2.94"/><rect class="cls-4" x="73.53" y="11.76" width="2.94" height="2.94"/><rect class="cls-1" x="70.59" y="114.7" width="2.94" height="2.94"/><rect class="cls-5" x="70.59" y="105.88" width="2.94" height="2.94"/><rect class="cls-5" x="70.59" y="102.94" width="2.94" height="2.94"/><rect class="cls-5" x="70.59" y="100" width="2.94" height="2.94"/><rect class="cls-5" x="70.59" y="97.06" width="2.94" height="2.94"/><rect class="cls-2" x="70.59" y="94.11" width="2.94" height="2.95"/><rect class="cls-2" x="70.59" y="91.17" width="2.94" height="2.94"/><rect class="cls-2" x="70.59" y="88.23" width="2.94" height="2.94"/><rect class="cls-2" x="70.59" y="85.29" width="2.94" height="2.94"/><rect class="cls-2" x="70.59" y="82.35" width="2.94" height="2.94"/><rect class="cls-3" x="70.59" y="79.41" width="2.94" height="2.94"/><rect class="cls-3" x="70.59" y="76.47" width="2.94" height="2.94"/><rect class="cls-3" x="70.59" y="73.53" width="2.94" height="2.94"/><rect class="cls-3" x="70.59" y="70.59" width="2.94" height="2.94"/><rect class="cls-3" x="70.59" y="67.64" width="2.94" height="2.95"/><rect class="cls-3" x="70.59" y="64.7" width="2.94" height="2.94"/><rect class="cls-3" x="70.59" y="61.76" width="2.94" height="2.94"/><rect class="cls-3" x="70.59" y="58.82" width="2.94" height="2.94"/><rect class="cls-3" x="70.59" y="55.88" width="2.94" height="2.94"/><rect class="cls-4" x="70.59" y="52.94" width="2.94" height="2.94"/><rect class="cls-4" x="70.59" y="50" width="2.94" height="2.94"/><rect class="cls-4" x="70.59" y="47.06" width="2.94" height="2.94"/><rect class="cls-4" x="70.59" y="44.11" width="2.94" height="2.95"/><rect class="cls-4" x="70.59" y="41.17" width="2.94" height="2.94"/><rect class="cls-4" x="70.59" y="38.23" width="2.94" height="2.94"/><rect class="cls-4" x="70.59" y="35.29" width="2.94" height="2.94"/><rect class="cls-4" x="70.59" y="32.35" width="2.94" height="2.94"/><rect class="cls-4" x="70.59" y="29.41" width="2.94" height="2.94"/><rect class="cls-2" x="70.59" y="26.47" width="2.94" height="2.94"/><rect class="cls-2" x="70.59" y="23.53" width="2.94" height="2.94"/><rect class="cls-2" x="70.59" y="20.59" width="2.94" height="2.94"/><rect x="70.59" y="17.64" width="2.94" height="2.95"/><rect class="cls-2" x="70.59" y="14.7" width="2.94" height="2.94"/><rect class="cls-4" x="70.59" y="11.76" width="2.94" height="2.94"/><rect class="cls-4" x="70.59" y="8.82" width="2.94" height="2.94"/><rect class="cls-1" x="67.65" y="114.7" width="2.94" height="2.94"/><rect class="cls-5" x="67.65" y="105.88" width="2.94" height="2.94"/><rect class="cls-5" x="67.65" y="102.94" width="2.94" height="2.94"/><rect class="cls-5" x="67.65" y="100" width="2.94" height="2.94"/><rect class="cls-5" x="67.65" y="97.06" width="2.94" height="2.94"/><rect class="cls-5" x="67.65" y="94.11" width="2.94" height="2.95"/><rect class="cls-2" x="67.65" y="91.17" width="2.94" height="2.94"/><rect class="cls-2" x="67.65" y="88.23" width="2.94" height="2.94"/><rect class="cls-2" x="67.65" y="85.29" width="2.94" height="2.94"/><rect class="cls-3" x="67.65" y="82.35" width="2.94" height="2.94"/><rect class="cls-3" x="67.65" y="79.41" width="2.94" height="2.94"/><rect class="cls-3" x="67.65" y="76.47" width="2.94" height="2.94"/><rect class="cls-3" x="67.65" y="73.53" width="2.94" height="2.94"/><rect class="cls-3" x="67.65" y="70.59" width="2.94" height="2.94"/><rect class="cls-3" x="67.65" y="67.64" width="2.94" height="2.95"/><rect class="cls-3" x="67.65" y="64.7" width="2.94" height="2.94"/><rect class="cls-3" x="67.65" y="61.76" width="2.94" height="2.94"/><rect class="cls-4" x="67.65" y="58.82" width="2.94" height="2.94"/><rect class="cls-4" x="67.65" y="55.88" width="2.94" height="2.94"/><rect class="cls-4" x="67.65" y="52.94" width="2.94" height="2.94"/><rect class="cls-4" x="67.65" y="50" width="2.94" height="2.94"/><rect class="cls-4" x="67.65" y="47.06" width="2.94" height="2.94"/><rect class="cls-4" x="67.65" y="44.11" width="2.94" height="2.95"/><rect class="cls-4" x="67.65" y="41.17" width="2.94" height="2.94"/><rect class="cls-4" x="67.65" y="38.23" width="2.94" height="2.94"/><rect class="cls-4" x="67.65" y="35.29" width="2.94" height="2.94"/><rect class="cls-4" x="67.65" y="32.35" width="2.94" height="2.94"/><rect class="cls-2" x="67.65" y="29.41" width="2.94" height="2.94"/><rect class="cls-2" x="67.65" y="26.47" width="2.94" height="2.94"/><rect x="67.65" y="23.53" width="2.94" height="2.94"/><rect x="67.65" y="20.59" width="2.94" height="2.94"/><rect x="67.65" y="17.64" width="2.94" height="2.95"/><rect class="cls-2" x="67.65" y="14.7" width="2.94" height="2.94"/><rect class="cls-4" x="67.65" y="11.76" width="2.94" height="2.94"/><rect class="cls-4" x="67.65" y="8.82" width="2.94" height="2.94"/><rect class="cls-4" x="67.65" y="5.88" width="2.94" height="2.94"/><rect class="cls-1" x="64.7" y="114.7" width="2.95" height="2.94"/><rect class="cls-5" x="64.7" y="105.88" width="2.95" height="2.94"/><rect class="cls-5" x="64.7" y="102.94" width="2.95" height="2.94"/><rect class="cls-5" x="64.7" y="100" width="2.95" height="2.94"/><rect class="cls-5" x="64.7" y="97.06" width="2.95" height="2.94"/><rect class="cls-5" x="64.7" y="94.11" width="2.95" height="2.95"/><rect class="cls-6" x="64.7" y="91.17" width="2.95" height="2.94"/><rect class="cls-6" x="64.7" y="88.23" width="2.95" height="2.94"/><rect class="cls-5" x="64.7" y="85.29" width="2.95" height="2.94"/><rect class="cls-3" x="64.7" y="82.35" width="2.95" height="2.94"/><rect class="cls-3" x="64.7" y="79.41" width="2.95" height="2.94"/><rect class="cls-3" x="64.7" y="76.47" width="2.95" height="2.94"/><rect class="cls-3" x="64.7" y="73.53" width="2.95" height="2.94"/><rect class="cls-3" x="64.7" y="70.59" width="2.95" height="2.94"/><rect class="cls-3" x="64.7" y="67.64" width="2.95" height="2.95"/><rect class="cls-3" x="64.7" y="64.7" width="2.95" height="2.94"/><rect class="cls-4" x="64.7" y="61.76" width="2.95" height="2.94"/><rect class="cls-4" x="64.7" y="58.82" width="2.95" height="2.94"/><rect class="cls-4" x="64.7" y="55.88" width="2.95" height="2.94"/><rect class="cls-4" x="64.7" y="52.94" width="2.95" height="2.94"/><rect class="cls-4" x="64.7" y="50" width="2.95" height="2.94"/><rect class="cls-4" x="64.7" y="47.06" width="2.95" height="2.94"/><rect class="cls-4" x="64.7" y="44.11" width="2.95" height="2.95"/><rect class="cls-4" x="64.7" y="41.17" width="2.95" height="2.94"/><rect class="cls-4" x="64.7" y="38.23" width="2.95" height="2.94"/><rect class="cls-4" x="64.7" y="35.29" width="2.95" height="2.94"/><rect class="cls-2" x="64.7" y="32.35" width="2.95" height="2.94"/><rect class="cls-2" x="64.7" y="29.41" width="2.95" height="2.94"/><rect x="64.7" y="26.47" width="2.95" height="2.94"/><rect x="64.7" y="17.64" width="2.95" height="2.95"/><rect class="cls-2" x="64.7" y="14.7" width="2.95" height="2.94"/><rect class="cls-2" x="64.7" y="11.76" width="2.95" height="2.94"/><rect class="cls-4" x="64.7" y="8.82" width="2.95" height="2.94"/><rect class="cls-4" x="64.7" y="5.88" width="2.95" height="2.94"/><rect class="cls-4" x="64.7" y="2.94" width="2.95" height="2.94"/><rect class="cls-1" x="61.76" y="114.7" width="2.94" height="2.94"/><rect class="cls-5" x="61.76" y="105.88" width="2.94" height="2.94"/><rect class="cls-5" x="61.76" y="102.94" width="2.94" height="2.94"/><rect class="cls-5" x="61.76" y="100" width="2.94" height="2.94"/><rect class="cls-5" x="61.76" y="97.06" width="2.94" height="2.94"/><rect class="cls-5" x="61.76" y="94.11" width="2.94" height="2.95"/><rect class="cls-6" x="61.76" y="91.17" width="2.94" height="2.94"/><rect class="cls-6" x="61.76" y="88.23" width="2.94" height="2.94"/><rect class="cls-5" x="61.76" y="85.29" width="2.94" height="2.94"/><rect class="cls-3" x="61.76" y="82.35" width="2.94" height="2.94"/><rect class="cls-3" x="61.76" y="79.41" width="2.94" height="2.94"/><rect class="cls-3" x="61.76" y="76.47" width="2.94" height="2.94"/><rect class="cls-3" x="61.76" y="73.53" width="2.94" height="2.94"/><rect class="cls-3" x="61.76" y="70.59" width="2.94" height="2.94"/><rect class="cls-4" x="61.76" y="58.82" width="2.94" height="2.94"/><rect class="cls-4" x="61.76" y="55.88" width="2.94" height="2.94"/><rect class="cls-4" x="61.76" y="52.94" width="2.94" height="2.94"/><rect class="cls-4" x="61.76" y="50" width="2.94" height="2.94"/><rect class="cls-4" x="61.76" y="47.06" width="2.94" height="2.94"/><rect x="61.76" y="44.11" width="2.94" height="2.95"/><rect class="cls-4" x="61.76" y="41.17" width="2.94" height="2.94"/><rect class="cls-4" x="61.76" y="38.23" width="2.94" height="2.94"/><rect class="cls-2" x="61.76" y="35.29" width="2.94" height="2.94"/><rect class="cls-2" x="61.76" y="32.35" width="2.94" height="2.94"/><rect class="cls-2" x="61.76" y="29.41" width="2.94" height="2.94"/><rect x="61.76" y="26.47" width="2.94" height="2.94"/><rect x="61.76" y="20.59" width="2.94" height="2.94"/><rect x="61.76" y="17.64" width="2.94" height="2.95"/><rect class="cls-2" x="61.76" y="14.7" width="2.94" height="2.94"/><rect class="cls-2" x="61.76" y="11.76" width="2.94" height="2.94"/><rect class="cls-2" x="61.76" y="8.82" width="2.94" height="2.94"/><rect class="cls-4" x="61.76" y="5.88" width="2.94" height="2.94"/><rect class="cls-4" x="61.76" y="2.94" width="2.94" height="2.94"/><rect class="cls-1" x="58.82" y="114.7" width="2.94" height="2.94"/><rect class="cls-1" x="58.82" y="108.82" width="2.94" height="2.94"/><rect class="cls-5" x="58.82" y="105.88" width="2.94" height="2.94"/><rect class="cls-5" x="58.82" y="102.94" width="2.94" height="2.94"/><rect class="cls-5" x="58.82" y="100" width="2.94" height="2.94"/><rect class="cls-5" x="58.82" y="97.06" width="2.94" height="2.94"/><rect class="cls-5" x="58.82" y="94.11" width="2.94" height="2.95"/><rect class="cls-5" x="58.82" y="91.17" width="2.94" height="2.94"/><rect class="cls-5" x="58.82" y="88.23" width="2.94" height="2.94"/><rect class="cls-5" x="58.82" y="85.29" width="2.94" height="2.94"/><rect class="cls-3" x="58.82" y="82.35" width="2.94" height="2.94"/><rect class="cls-3" x="58.82" y="79.41" width="2.94" height="2.94"/><rect class="cls-3" x="58.82" y="76.47" width="2.94" height="2.94"/><rect class="cls-3" x="58.82" y="73.53" width="2.94" height="2.94"/><rect class="cls-3" x="58.82" y="70.59" width="2.94" height="2.94"/><rect x="58.82" y="52.94" width="2.94" height="2.94"/><rect class="cls-3" x="58.82" y="50" width="2.94" height="2.94"/><rect class="cls-2" x="58.82" y="47.06" width="2.94" height="2.94"/><rect class="cls-4" x="58.82" y="44.11" width="2.94" height="2.95"/><rect class="cls-4" x="58.82" y="41.17" width="2.94" height="2.94"/><rect class="cls-2" x="58.82" y="38.23" width="2.94" height="2.94"/><rect class="cls-2" x="58.82" y="35.29" width="2.94" height="2.94"/><rect class="cls-2" x="58.82" y="32.35" width="2.94" height="2.94"/><rect class="cls-2" x="58.82" y="29.41" width="2.94" height="2.94"/><rect x="58.82" y="26.47" width="2.94" height="2.94"/><rect x="58.82" y="17.64" width="2.94" height="2.95"/><rect class="cls-2" x="58.82" y="14.7" width="2.94" height="2.94"/><rect class="cls-2" x="58.82" y="11.76" width="2.94" height="2.94"/><rect class="cls-2" x="58.82" y="8.82" width="2.94" height="2.94"/><rect class="cls-4" x="58.82" y="5.88" width="2.94" height="2.94"/><rect class="cls-4" x="58.82" y="2.94" width="2.94" height="2.94"/><rect class="cls-4" x="58.82" width="2.94" height="2.94"/><rect class="cls-5" x="55.88" y="100" width="2.94" height="2.94"/><rect class="cls-5" x="55.88" y="97.06" width="2.94" height="2.94"/><rect class="cls-5" x="55.88" y="94.11" width="2.94" height="2.95"/><rect class="cls-5" x="55.88" y="91.17" width="2.94" height="2.94"/><rect class="cls-5" x="55.88" y="88.23" width="2.94" height="2.94"/><rect class="cls-5" x="55.88" y="85.29" width="2.94" height="2.94"/><rect class="cls-3" x="55.88" y="82.35" width="2.94" height="2.94"/><rect class="cls-3" x="55.88" y="79.41" width="2.94" height="2.94"/><rect class="cls-3" x="55.88" y="76.47" width="2.94" height="2.94"/><rect class="cls-3" x="55.88" y="64.7" width="2.94" height="2.94"/><rect class="cls-3" x="55.88" y="61.76" width="2.94" height="2.94"/><rect class="cls-3" x="55.88" y="52.94" width="2.94" height="2.94"/><rect class="cls-2" x="55.88" y="50" width="2.94" height="2.94"/><rect class="cls-4" x="55.88" y="47.06" width="2.94" height="2.94"/><rect class="cls-4" x="55.88" y="44.11" width="2.94" height="2.95"/><rect class="cls-2" x="55.88" y="41.17" width="2.94" height="2.94"/><rect class="cls-2" x="55.88" y="38.23" width="2.94" height="2.94"/><rect x="55.88" y="35.29" width="2.94" height="2.94"/><rect x="55.88" y="32.35" width="2.94" height="2.94"/><rect class="cls-2" x="55.88" y="29.41" width="2.94" height="2.94"/><rect class="cls-2" x="55.88" y="26.47" width="2.94" height="2.94"/><rect x="55.88" y="23.53" width="2.94" height="2.94"/><rect x="55.88" y="20.59" width="2.94" height="2.94"/><rect x="55.88" y="17.64" width="2.94" height="2.95"/><rect class="cls-2" x="55.88" y="14.7" width="2.94" height="2.94"/><rect class="cls-2" x="55.88" y="11.76" width="2.94" height="2.94"/><rect class="cls-2" x="55.88" y="8.82" width="2.94" height="2.94"/><rect class="cls-4" x="55.88" y="5.88" width="2.94" height="2.94"/><rect class="cls-4" x="55.88" y="2.94" width="2.94" height="2.94"/><rect class="cls-4" x="55.88" width="2.94" height="2.94"/><rect class="cls-7" x="52.94" y="94.11" width="2.94" height="2.95"/><rect class="cls-7" x="52.94" y="91.17" width="2.94" height="2.94"/><rect class="cls-7" x="52.94" y="88.23" width="2.94" height="2.94"/><rect class="cls-7" x="52.94" y="85.29" width="2.94" height="2.94"/><rect class="cls-3" x="52.94" y="82.35" width="2.94" height="2.94"/><rect class="cls-3" x="52.94" y="79.41" width="2.94" height="2.94"/><rect class="cls-3" x="52.94" y="76.47" width="2.94" height="2.94"/><rect class="cls-3" x="52.94" y="52.94" width="2.94" height="2.94"/><rect class="cls-2" x="52.94" y="50" width="2.94" height="2.94"/><rect class="cls-4" x="52.94" y="47.06" width="2.94" height="2.94"/><rect class="cls-4" x="52.94" y="44.11" width="2.94" height="2.95"/><rect class="cls-2" x="52.94" y="41.17" width="2.94" height="2.94"/><rect x="52.94" y="38.23" width="2.94" height="2.94"/><rect x="52.94" y="32.35" width="2.94" height="2.94"/><rect class="cls-2" x="52.94" y="29.41" width="2.94" height="2.94"/><rect class="cls-2" x="52.94" y="26.47" width="2.94" height="2.94"/><rect class="cls-2" x="52.94" y="23.53" width="2.94" height="2.94"/><rect x="52.94" y="20.59" width="2.94" height="2.94"/><rect class="cls-2" x="52.94" y="17.64" width="2.94" height="2.95"/><rect class="cls-2" x="52.94" y="14.7" width="2.94" height="2.94"/><rect class="cls-2" x="52.94" y="11.76" width="2.94" height="2.94"/><rect class="cls-2" x="52.94" y="8.82" width="2.94" height="2.94"/><rect class="cls-4" x="52.94" y="5.88" width="2.94" height="2.94"/><rect class="cls-4" x="52.94" y="2.94" width="2.94" height="2.94"/><rect class="cls-4" x="52.94" width="2.94" height="2.94"/><rect class="cls-7" x="50" y="94.11" width="2.94" height="2.95"/><rect class="cls-7" x="50" y="91.17" width="2.94" height="2.94"/><rect class="cls-7" x="50" y="88.23" width="2.94" height="2.94"/><rect class="cls-7" x="50" y="85.29" width="2.94" height="2.94"/><rect class="cls-3" x="50" y="82.35" width="2.94" height="2.94"/><rect class="cls-3" x="50" y="79.41" width="2.94" height="2.94"/><rect class="cls-3" x="50" y="76.47" width="2.94" height="2.94"/><rect class="cls-3" x="50" y="73.53" width="2.94" height="2.94"/><rect class="cls-3" x="50" y="52.94" width="2.94" height="2.94"/><rect class="cls-2" x="50" y="50" width="2.94" height="2.94"/><rect class="cls-4" x="50" y="47.06" width="2.94" height="2.94"/><rect class="cls-4" x="50" y="44.11" width="2.94" height="2.95"/><rect class="cls-2" x="50" y="41.17" width="2.94" height="2.94"/><rect x="50" y="38.23" width="2.94" height="2.94"/><rect x="50" y="32.35" width="2.94" height="2.94"/><rect class="cls-2" x="50" y="29.41" width="2.94" height="2.94"/><rect class="cls-2" x="50" y="26.47" width="2.94" height="2.94"/><rect class="cls-2" x="50" y="23.53" width="2.94" height="2.94"/><rect x="50" y="20.59" width="2.94" height="2.94"/><rect class="cls-2" x="50" y="17.64" width="2.94" height="2.95"/><rect class="cls-2" x="50" y="14.7" width="2.94" height="2.94"/><rect class="cls-2" x="50" y="11.76" width="2.94" height="2.94"/><rect class="cls-2" x="50" y="8.82" width="2.94" height="2.94"/><rect class="cls-4" x="50" y="5.88" width="2.94" height="2.94"/><rect class="cls-4" x="50" y="2.94" width="2.94" height="2.94"/><rect class="cls-4" x="50" width="2.94" height="2.94"/><rect class="cls-5" x="47.06" y="100" width="2.94" height="2.94"/><rect class="cls-5" x="47.06" y="97.06" width="2.94" height="2.94"/><rect class="cls-5" x="47.06" y="94.11" width="2.94" height="2.95"/><rect class="cls-5" x="47.06" y="91.17" width="2.94" height="2.94"/><rect class="cls-5" x="47.06" y="88.23" width="2.94" height="2.94"/><rect class="cls-5" x="47.06" y="85.29" width="2.94" height="2.94"/><rect class="cls-3" x="47.06" y="82.35" width="2.94" height="2.94"/><rect class="cls-3" x="47.06" y="79.41" width="2.94" height="2.94"/><rect class="cls-3" x="47.06" y="76.47" width="2.94" height="2.94"/><rect class="cls-3" x="47.06" y="52.94" width="2.94" height="2.94"/><rect class="cls-2" x="47.06" y="50" width="2.94" height="2.94"/><rect class="cls-4" x="47.06" y="47.06" width="2.94" height="2.94"/><rect class="cls-4" x="47.06" y="44.11" width="2.94" height="2.95"/><rect class="cls-2" x="47.06" y="41.17" width="2.94" height="2.94"/><rect class="cls-2" x="47.06" y="38.23" width="2.94" height="2.94"/><rect x="47.06" y="35.29" width="2.94" height="2.94"/><rect x="47.06" y="32.35" width="2.94" height="2.94"/><rect class="cls-2" x="47.06" y="29.41" width="2.94" height="2.94"/><rect class="cls-2" x="47.06" y="26.47" width="2.94" height="2.94"/><rect x="47.06" y="23.53" width="2.94" height="2.94"/><rect x="47.06" y="20.59" width="2.94" height="2.94"/><rect x="47.06" y="17.64" width="2.94" height="2.95"/><rect class="cls-2" x="47.06" y="14.7" width="2.94" height="2.94"/><rect class="cls-2" x="47.06" y="11.76" width="2.94" height="2.94"/><rect class="cls-2" x="47.06" y="8.82" width="2.94" height="2.94"/><rect class="cls-4" x="47.06" y="5.88" width="2.94" height="2.94"/><rect class="cls-4" x="47.06" y="2.94" width="2.94" height="2.94"/><rect class="cls-4" x="47.06" width="2.94" height="2.94"/><rect class="cls-1" x="44.12" y="114.7" width="2.94" height="2.94"/><rect class="cls-1" x="44.12" y="111.76" width="2.94" height="2.94"/><rect class="cls-1" x="44.12" y="108.82" width="2.94" height="2.94"/><rect class="cls-5" x="44.12" y="105.88" width="2.94" height="2.94"/><rect class="cls-5" x="44.12" y="102.94" width="2.94" height="2.94"/><rect class="cls-5" x="44.12" y="100" width="2.94" height="2.94"/><rect class="cls-5" x="44.12" y="97.06" width="2.94" height="2.94"/><rect class="cls-5" x="44.12" y="94.11" width="2.94" height="2.95"/><rect class="cls-5" x="44.12" y="91.17" width="2.94" height="2.94"/><rect class="cls-5" x="44.12" y="88.23" width="2.94" height="2.94"/><rect class="cls-5" x="44.12" y="85.29" width="2.94" height="2.94"/><rect class="cls-3" x="44.12" y="82.35" width="2.94" height="2.94"/><rect class="cls-3" x="44.12" y="79.41" width="2.94" height="2.94"/><rect class="cls-3" x="44.12" y="76.47" width="2.94" height="2.94"/><rect class="cls-3" x="44.12" y="64.7" width="2.94" height="2.94"/><rect class="cls-3" x="44.12" y="61.76" width="2.94" height="2.94"/><rect class="cls-3" x="44.12" y="52.94" width="2.94" height="2.94"/><rect class="cls-3" x="44.12" y="50" width="2.94" height="2.94"/><rect class="cls-2" x="44.12" y="47.06" width="2.94" height="2.94"/><rect class="cls-4" x="44.12" y="44.11" width="2.94" height="2.95"/><rect class="cls-4" x="44.12" y="41.17" width="2.94" height="2.94"/><rect class="cls-2" x="44.12" y="38.23" width="2.94" height="2.94"/><rect class="cls-2" x="44.12" y="35.29" width="2.94" height="2.94"/><rect class="cls-2" x="44.12" y="32.35" width="2.94" height="2.94"/><rect class="cls-2" x="44.12" y="29.41" width="2.94" height="2.94"/><rect x="44.12" y="26.47" width="2.94" height="2.94"/><rect x="44.12" y="17.64" width="2.94" height="2.95"/><rect class="cls-2" x="44.12" y="14.7" width="2.94" height="2.94"/><rect class="cls-2" x="44.12" y="11.76" width="2.94" height="2.94"/><rect class="cls-2" x="44.12" y="8.82" width="2.94" height="2.94"/><rect class="cls-4" x="44.12" y="5.88" width="2.94" height="2.94"/><rect class="cls-4" x="44.12" y="2.94" width="2.94" height="2.94"/><rect class="cls-4" x="44.12" width="2.94" height="2.94"/><rect class="cls-1" x="41.17" y="114.7" width="2.95" height="2.94"/><rect class="cls-1" x="41.17" y="111.76" width="2.95" height="2.94"/><rect class="cls-5" x="41.17" y="105.88" width="2.95" height="2.94"/><rect class="cls-5" x="41.17" y="102.94" width="2.95" height="2.94"/><rect class="cls-5" x="41.17" y="100" width="2.95" height="2.94"/><rect class="cls-5" x="41.17" y="97.06" width="2.95" height="2.94"/><rect class="cls-5" x="41.17" y="94.11" width="2.95" height="2.95"/><rect class="cls-5" x="41.17" y="91.17" width="2.95" height="2.94"/><rect class="cls-5" x="41.17" y="88.23" width="2.95" height="2.94"/><rect class="cls-5" x="41.17" y="85.29" width="2.95" height="2.94"/><rect class="cls-3" x="41.17" y="82.35" width="2.95" height="2.94"/><rect class="cls-3" x="41.17" y="79.41" width="2.95" height="2.94"/><rect class="cls-3" x="41.17" y="76.47" width="2.95" height="2.94"/><rect class="cls-3" x="41.17" y="73.53" width="2.95" height="2.94"/><rect class="cls-3" x="41.17" y="70.59" width="2.95" height="2.94"/><rect class="cls-3" x="41.17" y="52.94" width="2.95" height="2.94"/><rect class="cls-4" x="41.17" y="50" width="2.95" height="2.94"/><rect class="cls-4" x="41.17" y="47.06" width="2.95" height="2.94"/><rect class="cls-4" x="41.17" y="44.11" width="2.95" height="2.95"/><rect class="cls-4" x="41.17" y="41.17" width="2.95" height="2.94"/><rect class="cls-4" x="41.17" y="38.23" width="2.95" height="2.94"/><rect class="cls-2" x="41.17" y="35.29" width="2.95" height="2.94"/><rect class="cls-2" x="41.17" y="32.35" width="2.95" height="2.94"/><rect class="cls-2" x="41.17" y="29.41" width="2.95" height="2.94"/><rect x="41.17" y="26.47" width="2.95" height="2.94"/><rect x="41.17" y="20.59" width="2.95" height="2.94"/><rect x="41.17" y="17.64" width="2.95" height="2.95"/><rect class="cls-2" x="41.17" y="14.7" width="2.95" height="2.94"/><rect class="cls-2" x="41.17" y="11.76" width="2.95" height="2.94"/><rect class="cls-2" x="41.17" y="8.82" width="2.95" height="2.94"/><rect class="cls-4" x="41.17" y="5.88" width="2.95" height="2.94"/><rect class="cls-4" x="41.17" y="2.94" width="2.95" height="2.94"/><rect class="cls-1" x="38.23" y="114.7" width="2.94" height="2.94"/><rect class="cls-1" x="38.23" y="111.76" width="2.94" height="2.94"/><rect class="cls-5" x="38.23" y="105.88" width="2.94" height="2.94"/><rect class="cls-5" x="38.23" y="102.94" width="2.94" height="2.94"/><rect class="cls-5" x="38.23" y="100" width="2.94" height="2.94"/><rect class="cls-5" x="38.23" y="97.06" width="2.94" height="2.94"/><rect class="cls-6" x="38.23" y="94.11" width="2.94" height="2.95"/><rect class="cls-6" x="38.23" y="91.17" width="2.94" height="2.94"/><rect class="cls-6" x="38.23" y="88.23" width="2.94" height="2.94"/><rect class="cls-5" x="38.23" y="85.29" width="2.94" height="2.94"/><rect class="cls-3" x="38.23" y="82.35" width="2.94" height="2.94"/><rect class="cls-3" x="38.23" y="79.41" width="2.94" height="2.94"/><rect class="cls-3" x="38.23" y="76.47" width="2.94" height="2.94"/><rect class="cls-3" x="38.23" y="73.53" width="2.94" height="2.94"/><rect class="cls-3" x="38.23" y="70.59" width="2.94" height="2.94"/><rect class="cls-3" x="38.23" y="55.88" width="2.94" height="2.94"/><rect class="cls-3" x="38.23" y="52.94" width="2.94" height="2.94"/><rect class="cls-4" x="38.23" y="50" width="2.94" height="2.94"/><rect class="cls-4" x="38.23" y="47.06" width="2.94" height="2.94"/><rect class="cls-4" x="38.23" y="44.11" width="2.94" height="2.95"/><rect class="cls-4" x="38.23" y="41.17" width="2.94" height="2.94"/><rect class="cls-4" x="38.23" y="38.23" width="2.94" height="2.94"/><rect class="cls-4" x="38.23" y="35.29" width="2.94" height="2.94"/><rect class="cls-2" x="38.23" y="32.35" width="2.94" height="2.94"/><rect class="cls-2" x="38.23" y="29.41" width="2.94" height="2.94"/><rect x="38.23" y="26.47" width="2.94" height="2.94"/><rect x="38.23" y="17.64" width="2.94" height="2.95"/><rect class="cls-2" x="38.23" y="14.7" width="2.94" height="2.94"/><rect class="cls-2" x="38.23" y="11.76" width="2.94" height="2.94"/><rect class="cls-4" x="38.23" y="8.82" width="2.94" height="2.94"/><rect class="cls-4" x="38.23" y="5.88" width="2.94" height="2.94"/><rect class="cls-4" x="38.23" y="2.94" width="2.94" height="2.94"/><rect class="cls-1" x="35.29" y="114.7" width="2.94" height="2.94"/><rect class="cls-1" x="35.29" y="111.76" width="2.94" height="2.94"/><rect class="cls-5" x="35.29" y="105.88" width="2.94" height="2.94"/><rect class="cls-5" x="35.29" y="102.94" width="2.94" height="2.94"/><rect class="cls-5" x="35.29" y="100" width="2.94" height="2.94"/><rect class="cls-6" x="35.29" y="97.06" width="2.94" height="2.94"/><rect class="cls-6" x="35.29" y="94.11" width="2.94" height="2.95"/><rect class="cls-6" x="35.29" y="91.17" width="2.94" height="2.94"/><rect class="cls-6" x="35.29" y="88.23" width="2.94" height="2.94"/><rect class="cls-5" x="35.29" y="85.29" width="2.94" height="2.94"/><rect class="cls-3" x="35.29" y="82.35" width="2.94" height="2.94"/><rect class="cls-3" x="35.29" y="79.41" width="2.94" height="2.94"/><rect class="cls-3" x="35.29" y="76.47" width="2.94" height="2.94"/><rect class="cls-3" x="35.29" y="73.53" width="2.94" height="2.94"/><rect class="cls-3" x="35.29" y="70.59" width="2.94" height="2.94"/><rect class="cls-3" x="35.29" y="67.64" width="2.94" height="2.95"/><rect class="cls-3" x="35.29" y="64.7" width="2.94" height="2.94"/><rect class="cls-3" x="35.29" y="61.76" width="2.94" height="2.94"/><rect class="cls-3" x="35.29" y="58.82" width="2.94" height="2.94"/><rect class="cls-4" x="35.29" y="55.88" width="2.94" height="2.94"/><rect class="cls-4" x="35.29" y="52.94" width="2.94" height="2.94"/><rect class="cls-4" x="35.29" y="50" width="2.94" height="2.94"/><rect class="cls-4" x="35.29" y="47.06" width="2.94" height="2.94"/><rect class="cls-4" x="35.29" y="44.11" width="2.94" height="2.95"/><rect class="cls-4" x="35.29" y="41.17" width="2.94" height="2.94"/><rect class="cls-4" x="35.29" y="38.23" width="2.94" height="2.94"/><rect class="cls-4" x="35.29" y="35.29" width="2.94" height="2.94"/><rect class="cls-4" x="35.29" y="32.35" width="2.94" height="2.94"/><rect class="cls-2" x="35.29" y="29.41" width="2.94" height="2.94"/><rect class="cls-2" x="35.29" y="26.47" width="2.94" height="2.94"/><rect x="35.29" y="23.53" width="2.94" height="2.94"/><rect x="35.29" y="20.59" width="2.94" height="2.94"/><rect x="35.29" y="17.64" width="2.94" height="2.95"/><rect class="cls-2" x="35.29" y="14.7" width="2.94" height="2.94"/><rect class="cls-4" x="35.29" y="11.76" width="2.94" height="2.94"/><rect class="cls-4" x="35.29" y="8.82" width="2.94" height="2.94"/><rect class="cls-4" x="35.29" y="5.88" width="2.94" height="2.94"/><rect class="cls-1" x="32.35" y="114.7" width="2.94" height="2.94"/><rect class="cls-1" x="32.35" y="111.76" width="2.94" height="2.94"/><rect class="cls-5" x="32.35" y="105.88" width="2.94" height="2.94"/><rect class="cls-5" x="32.35" y="102.94" width="2.94" height="2.94"/><rect class="cls-5" x="32.35" y="100" width="2.94" height="2.94"/><rect class="cls-5" x="32.35" y="97.06" width="2.94" height="2.94"/><rect class="cls-5" x="32.35" y="94.11" width="2.94" height="2.95"/><rect class="cls-5" x="32.35" y="91.17" width="2.94" height="2.94"/><rect class="cls-5" x="32.35" y="88.23" width="2.94" height="2.94"/><rect class="cls-5" x="32.35" y="85.29" width="2.94" height="2.94"/><rect class="cls-3" x="32.35" y="82.35" width="2.94" height="2.94"/><rect class="cls-3" x="32.35" y="79.41" width="2.94" height="2.94"/><rect class="cls-3" x="32.35" y="76.47" width="2.94" height="2.94"/><rect class="cls-3" x="32.35" y="73.53" width="2.94" height="2.94"/><rect class="cls-3" x="32.35" y="70.59" width="2.94" height="2.94"/><rect class="cls-3" x="32.35" y="67.64" width="2.94" height="2.95"/><rect class="cls-3" x="32.35" y="64.7" width="2.94" height="2.94"/><rect class="cls-4" x="32.35" y="61.76" width="2.94" height="2.94"/><rect class="cls-4" x="32.35" y="58.82" width="2.94" height="2.94"/><rect class="cls-4" x="32.35" y="55.88" width="2.94" height="2.94"/><rect class="cls-4" x="32.35" y="52.94" width="2.94" height="2.94"/><rect class="cls-4" x="32.35" y="50" width="2.94" height="2.94"/><rect class="cls-4" x="32.35" y="47.06" width="2.94" height="2.94"/><rect class="cls-4" x="32.35" y="44.11" width="2.94" height="2.95"/><rect class="cls-4" x="32.35" y="41.17" width="2.94" height="2.94"/><rect class="cls-4" x="32.35" y="38.23" width="2.94" height="2.94"/><rect class="cls-4" x="32.35" y="35.29" width="2.94" height="2.94"/><rect class="cls-4" x="32.35" y="32.35" width="2.94" height="2.94"/><rect class="cls-4" x="32.35" y="29.41" width="2.94" height="2.94"/><rect class="cls-2" x="32.35" y="26.47" width="2.94" height="2.94"/><rect class="cls-2" x="32.35" y="23.53" width="2.94" height="2.94"/><rect class="cls-2" x="32.35" y="20.59" width="2.94" height="2.94"/><rect x="32.35" y="17.64" width="2.94" height="2.95"/><rect class="cls-2" x="32.35" y="14.7" width="2.94" height="2.94"/><rect class="cls-4" x="32.35" y="11.76" width="2.94" height="2.94"/><rect class="cls-4" x="32.35" y="8.82" width="2.94" height="2.94"/><rect class="cls-1" x="29.41" y="114.7" width="2.94" height="2.94"/><rect class="cls-1" x="29.41" y="111.76" width="2.94" height="2.94"/><rect class="cls-1" x="29.41" y="108.82" width="2.94" height="2.94"/><rect class="cls-5" x="29.41" y="105.88" width="2.94" height="2.94"/><rect class="cls-5" x="29.41" y="102.94" width="2.94" height="2.94"/><rect class="cls-5" x="29.41" y="100" width="2.94" height="2.94"/><rect class="cls-5" x="29.41" y="97.06" width="2.94" height="2.94"/><rect class="cls-5" x="29.41" y="94.11" width="2.94" height="2.95"/><rect class="cls-5" x="29.41" y="91.17" width="2.94" height="2.94"/><rect class="cls-5" x="29.41" y="88.23" width="2.94" height="2.94"/><rect class="cls-5" x="29.41" y="85.29" width="2.94" height="2.94"/><rect class="cls-3" x="29.41" y="82.35" width="2.94" height="2.94"/><rect class="cls-3" x="29.41" y="79.41" width="2.94" height="2.94"/><rect class="cls-3" x="29.41" y="76.47" width="2.94" height="2.94"/><rect class="cls-3" x="29.41" y="73.53" width="2.94" height="2.94"/><rect class="cls-3" x="29.41" y="70.59" width="2.94" height="2.94"/><rect class="cls-3" x="29.41" y="67.64" width="2.94" height="2.95"/><rect class="cls-3" x="29.41" y="64.7" width="2.94" height="2.94"/><rect class="cls-3" x="29.41" y="61.76" width="2.94" height="2.94"/><rect class="cls-4" x="29.41" y="58.82" width="2.94" height="2.94"/><rect class="cls-4" x="29.41" y="55.88" width="2.94" height="2.94"/><rect class="cls-4" x="29.41" y="52.94" width="2.94" height="2.94"/><rect class="cls-4" x="29.41" y="50" width="2.94" height="2.94"/><rect class="cls-4" x="29.41" y="47.06" width="2.94" height="2.94"/><rect class="cls-4" x="29.41" y="44.11" width="2.94" height="2.95"/><rect class="cls-4" x="29.41" y="41.17" width="2.94" height="2.94"/><rect class="cls-4" x="29.41" y="38.23" width="2.94" height="2.94"/><rect class="cls-4" x="29.41" y="35.29" width="2.94" height="2.94"/><rect class="cls-4" x="29.41" y="32.35" width="2.94" height="2.94"/><rect class="cls-4" x="29.41" y="29.41" width="2.94" height="2.94"/><rect class="cls-4" x="29.41" y="26.47" width="2.94" height="2.94"/><rect class="cls-4" x="29.41" y="23.53" width="2.94" height="2.94"/><rect class="cls-4" x="29.41" y="20.59" width="2.94" height="2.94"/><rect class="cls-4" x="29.41" y="17.64" width="2.94" height="2.95"/><rect class="cls-4" x="29.41" y="14.7" width="2.94" height="2.94"/><rect class="cls-4" x="29.41" y="11.76" width="2.94" height="2.94"/><rect class="cls-4" x="29.41" y="8.82" width="2.94" height="2.94"/><rect class="cls-8" x="26.47" y="91.17" width="2.94" height="2.94"/><rect class="cls-3" x="26.47" y="64.7" width="2.94" height="2.94"/><rect class="cls-3" x="26.47" y="61.76" width="2.94" height="2.94"/><rect class="cls-3" x="26.47" y="58.82" width="2.94" height="2.94"/><rect class="cls-3" x="26.47" y="55.88" width="2.94" height="2.94"/><rect class="cls-3" x="26.47" y="52.94" width="2.94" height="2.94"/><rect class="cls-3" x="26.47" y="50" width="2.94" height="2.94"/><rect class="cls-4" x="26.47" y="38.23" width="2.94" height="2.94"/><rect class="cls-4" x="26.47" y="35.29" width="2.94" height="2.94"/><rect class="cls-4" x="26.47" y="32.35" width="2.94" height="2.94"/><rect class="cls-4" x="26.47" y="29.41" width="2.94" height="2.94"/><rect class="cls-4" x="26.47" y="26.47" width="2.94" height="2.94"/><rect class="cls-4" x="26.47" y="23.53" width="2.94" height="2.94"/><rect class="cls-4" x="26.47" y="20.59" width="2.94" height="2.94"/><rect class="cls-4" x="26.47" y="17.64" width="2.94" height="2.95"/><rect class="cls-4" x="26.47" y="14.7" width="2.94" height="2.94"/><rect class="cls-3" x="23.53" y="64.7" width="2.94" height="2.94"/><rect class="cls-3" x="23.53" y="61.76" width="2.94" height="2.94"/><rect class="cls-3" x="23.53" y="58.82" width="2.94" height="2.94"/><rect class="cls-3" x="23.53" y="55.88" width="2.94" height="2.94"/><rect class="cls-3" x="23.53" y="52.94" width="2.94" height="2.94"/><rect class="cls-3" x="23.53" y="50" width="2.94" height="2.94"/><rect class="cls-3" x="23.53" y="47.06" width="2.94" height="2.94"/><rect class="cls-3" x="23.53" y="44.11" width="2.94" height="2.95"/><rect class="cls-3" x="20.59" y="61.76" width="2.94" height="2.94"/><rect class="cls-3" x="20.59" y="58.82" width="2.94" height="2.94"/><rect class="cls-3" x="20.59" y="55.88" width="2.94" height="2.94"/><rect class="cls-3" x="20.59" y="52.94" width="2.94" height="2.94"/><rect class="cls-3" x="20.59" y="50" width="2.94" height="2.94"/><rect class="cls-3" x="20.59" y="47.06" width="2.94" height="2.94"/><rect class="cls-3" x="20.59" y="44.11" width="2.94" height="2.95"/><rect class="cls-2" x="20.59" y="41.17" width="2.94" height="2.94"/><rect class="cls-2" x="20.59" y="38.23" width="2.94" height="2.94"/><rect class="cls-3" x="17.65" y="61.76" width="2.94" height="2.94"/><rect class="cls-3" x="17.65" y="58.82" width="2.94" height="2.94"/><rect class="cls-3" x="17.65" y="55.88" width="2.94" height="2.94"/><rect class="cls-3" x="17.65" y="52.94" width="2.94" height="2.94"/><rect class="cls-3" x="17.65" y="50" width="2.94" height="2.94"/><rect class="cls-3" x="17.65" y="47.06" width="2.94" height="2.94"/><rect class="cls-2" x="17.65" y="44.11" width="2.94" height="2.95"/><rect class="cls-2" x="17.65" y="41.17" width="2.94" height="2.94"/><rect class="cls-2" x="17.65" y="38.23" width="2.94" height="2.94"/><rect class="cls-2" x="17.65" y="35.29" width="2.94" height="2.94"/><rect class="cls-2" x="17.65" y="32.35" width="2.94" height="2.94"/><rect class="cls-2" x="17.65" y="23.53" width="2.94" height="2.94"/><rect class="cls-2" x="17.65" y="20.59" width="2.94" height="2.94"/><rect class="cls-2" x="17.65" y="17.64" width="2.94" height="2.95"/><rect class="cls-3" x="14.7" y="58.82" width="2.95" height="2.94"/><rect class="cls-3" x="14.7" y="55.88" width="2.95" height="2.94"/><rect class="cls-3" x="14.7" y="52.94" width="2.95" height="2.94"/><rect class="cls-3" x="14.7" y="50" width="2.95" height="2.94"/><rect class="cls-3" x="14.7" y="47.06" width="2.95" height="2.94"/><rect class="cls-2" x="14.7" y="44.11" width="2.95" height="2.95"/><rect class="cls-2" x="14.7" y="41.17" width="2.95" height="2.94"/><rect class="cls-2" x="14.7" y="38.23" width="2.95" height="2.94"/><rect class="cls-2" x="14.7" y="35.29" width="2.95" height="2.94"/><rect class="cls-2" x="14.7" y="32.35" width="2.95" height="2.94"/><rect class="cls-2" x="14.7" y="29.41" width="2.95" height="2.94"/><rect class="cls-2" x="14.7" y="26.47" width="2.95" height="2.94"/><rect class="cls-2" x="14.7" y="23.53" width="2.95" height="2.94"/><rect class="cls-2" x="14.7" y="20.59" width="2.95" height="2.94"/><rect class="cls-2" x="14.7" y="17.64" width="2.95" height="2.95"/><rect class="cls-2" x="14.7" y="14.7" width="2.95" height="2.94"/><rect class="cls-3" x="11.76" y="52.94" width="2.94" height="2.94"/><rect class="cls-3" x="11.76" y="50" width="2.94" height="2.94"/><rect class="cls-3" x="11.76" y="47.06" width="2.94" height="2.94"/><rect class="cls-2" x="11.76" y="44.11" width="2.94" height="2.95"/><rect class="cls-2" x="11.76" y="41.17" width="2.94" height="2.94"/><rect class="cls-2" x="11.76" y="38.23" width="2.94" height="2.94"/><rect class="cls-2" x="11.76" y="35.29" width="2.94" height="2.94"/><rect class="cls-2" x="11.76" y="32.35" width="2.94" height="2.94"/><rect class="cls-2" x="11.76" y="29.41" width="2.94" height="2.94"/><rect class="cls-2" x="11.76" y="26.47" width="2.94" height="2.94"/><rect class="cls-2" x="11.76" y="23.53" width="2.94" height="2.94"/><rect class="cls-2" x="11.76" y="20.59" width="2.94" height="2.94"/><rect class="cls-2" x="11.76" y="17.64" width="2.94" height="2.95"/><rect class="cls-2" x="11.76" y="14.7" width="2.94" height="2.94"/><rect class="cls-3" x="8.82" y="50" width="2.94" height="2.94"/><rect class="cls-3" x="8.82" y="47.06" width="2.94" height="2.94"/><rect class="cls-2" x="8.82" y="44.11" width="2.94" height="2.95"/><rect class="cls-2" x="8.82" y="41.17" width="2.94" height="2.94"/><rect class="cls-2" x="8.82" y="38.23" width="2.94" height="2.94"/><rect class="cls-2" x="8.82" y="35.29" width="2.94" height="2.94"/><rect class="cls-2" x="8.82" y="32.35" width="2.94" height="2.94"/><rect class="cls-2" x="8.82" y="29.41" width="2.94" height="2.94"/><rect class="cls-2" x="8.82" y="26.47" width="2.94" height="2.94"/><rect class="cls-2" x="8.82" y="23.53" width="2.94" height="2.94"/><rect class="cls-2" x="8.82" y="20.59" width="2.94" height="2.94"/><rect class="cls-2" x="8.82" y="17.64" width="2.94" height="2.95"/><rect class="cls-2" x="8.82" y="14.7" width="2.94" height="2.94"/><rect class="cls-2" x="5.88" y="38.23" width="2.94" height="2.94"/><rect class="cls-2" x="5.88" y="35.29" width="2.94" height="2.94"/><rect class="cls-2" x="5.88" y="32.35" width="2.94" height="2.94"/><rect class="cls-2" x="5.88" y="29.41" width="2.94" height="2.94"/><rect class="cls-2" x="5.88" y="26.47" width="2.94" height="2.94"/><rect class="cls-2" x="5.88" y="23.53" width="2.94" height="2.94"/><rect class="cls-2" x="5.88" y="20.59" width="2.94" height="2.94"/><rect class="cls-2" x="5.88" y="17.64" width="2.94" height="2.95"/><rect class="cls-2" x="5.88" y="14.7" width="2.94" height="2.94"/><rect class="cls-2" x="2.94" y="26.47" width="2.94" height="2.94"/><rect class="cls-2" x="2.94" y="23.53" width="2.94" height="2.94"/><rect class="cls-2" x="2.94" y="20.59" width="2.94" height="2.94"/><rect class="cls-2" x="2.94" y="17.64" width="2.94" height="2.95"/><rect class="cls-2" x="2.94" y="14.7" width="2.94" height="2.94"/><rect class="cls-2" y="23.53" width="2.94" height="2.94"/><rect class="cls-2" y="20.59" width="2.94" height="2.94"/><rect class="cls-2" y="17.64" width="2.94" height="2.95"/><rect class="cls-2" y="14.7" width="2.94" height="2.94"/></svg>